<?xml version="1.0" encoding="utf-8"?>
<!-- Generator: Adobe Illustrator 19.2.1, SVG Export Plug-In . SVG Version: 6.00 Build 0)  -->
<svg version="1.1" id="layer" xmlns="http://www.w3.org/2000/svg" xmlns:xlink="http://www.w3.org/1999/xlink" x="0px" y="0px"
	 viewBox="0 200 645 275" style="enable-background:new 0 0 652 652;" xml:space="preserve">
<style type="text/css">
	.st0{fill:#fff;}
</style>
<path class="st0" d="M616.9,316.6c-5.7,2-10.6,3.6-18.3,3.3c-4.6-0.2-9-0.8-13.3-1.3c-4.4-0.5-8.7-1.3-13.3-1.3
	c-17.2,0-29.1,5-41.8,9.3c-1.7,0.6-3.6,1.8-5.4,1c0.7-1.4,2.2-2.2,3.4-3c6.4-4.5,11.7-9.1,16.3-15.6c1.8-2.5,3.3-5.7,2.5-9.6
	c-0.5-2.4-2.2-4.3-4.5-5.4c-2.7-1.3-10-1-12.8-0.3c-3.6,0.9-6.7,2.8-10,4.3c-3.2,1.5-5.9,3.7-8.6,5.7c-4.1,3.1-7.7,6.7-10.6,10.7
	c-1,1.4-1.6,3.2-2.8,4.4c-1,1-2.9,1.8-4.5,2.7c-1.4,0.8-3.6,2.4-5.1,2.3c-2.2-0.2-3.8-4.2-3.4-6.9c0.3-1.8,2.5-3.4,3.4-4.3
	c3-3.2,4.8-4.8,7.6-7.7c1.4-1.5,2.5-3,3.5-4.3c4.4-5.2,8.7-10.5,14.1-16.9c2.2-2.7,4.2-6,6.3-9c2.1-3,4.1-6.4,5.7-9.7
	c0.7-1.5,2-3.1,2.6-5c1.8-5.3,5-12.5,0.7-18c-1.4-1.7-4-4.1-6.6-4.3c-1.6-0.1-3,1.3-4.2,2.1c-8.7,6.1-15.8,12.8-22,20.7
	c-5.2,6.6-9.9,14.2-13.9,22.4c-0.9,1.7-2.4,7.3-4.2,8c-1,0.4-2.5,0.2-3.7,0.3c-6.7,0.5-11.2,2.2-15.8,4.3c-2,0.9-4,1.5-5.6,2.4
	c-3.3,1.9-6.6,4.1-9.5,6.4c-2.9,2.3-5.3,5.3-8.3,7.6c-2.5,1.9-6.5,3.2-9.7,4.6c-1.3,0.6-2.7,1.3-4.8,2c-1.6,0.5-4.3,1.6-5.3,0.7
	c-1-0.9,0.5-4.8,1-6.3c0.9-2.4,1.9-4.3,2.3-6c1.2-4.6-0.4-9.9-4.4-11.3c-2.7-1-5.2,0.1-7.5,1.1c-1.5,0.7-3.3,1.3-4.5,2
	c-1.7,0.9-2.9,2.5-5,3.7c-1.6,0.9-3.6,1.6-5.4,2.4c-4,1.8-6.5,3.4-10.4,5.4c-1.5,0.7-4.3,2.6-5.6,2.4c-1.3-0.2-2.7-2.7-2.9-4.1
	c-0.6-3.5,2.2-5.6,4.3-7.3c1.8-1.4,4-3.6,7-3c1.2,0.3,1.5,1.1,2.2,2c2.4,2.9,7.3,1.4,9.8-1.9c0.7-0.9,1.3-2.1,1.9-3.1
	c0.6-1.1,1.4-2.2,1.8-3.3c1.7-5.6-3.9-8-8.9-7.7c-1.2,0.1-2.6,0.5-4,0.7c-4.4,0.6-7.9,1.5-11.6,2.6c-12.4,3.6-23.4,7-34.7,12.1
	c-1.8,0.8-5.3,2.8-6.7,2.7c-1.8-0.2-2.4-2.7-4.5-3.1c-2.8-0.6-5.8,1.2-7.6,2c-0.9,0.4-1.9,0.7-2.6,1.1c-1.8,1.2-5.1,4.7-6.2,6.4
	c-1.1,1.7-1,3.4-2.3,4.7c-1,1-3,1.8-4.7,2.7c-2.8,1.5-7.5,3.7-10.1,5c-1.5,0.7-4.5,2.4-5.4,0.3c0.6-3.7,2.9-6.5,5-9.1
	c4.3-5.4,8-10.8,12.3-16.1c2.1-2.6,4.6-5.4,5.3-9c1.1-5.5-1.5-13-6-14.3c-2.9-0.8-6.3,0.5-6.7,2.7c-0.2,0.8,0.2,2,0.2,3
	c-0.4,4.1-2.6,9-5,11.3c-1.7,1.7-3.9,3.2-5.9,4.9c-9.6,8.2-20,16.1-31.8,21.9c-2.9,1.4-4.4,1.9-7.5,3.3c-0.9,0.4-2.3,1-4.1,1.3
	c-5.8,0.9-3.1-3.1-1.5-5.9c1-1.7,1.8-3.1,2.6-4.3c2.2-3,4.5-5.5,5.7-8.1c0.6-1.3,1-3.5,0.6-5.1c-0.4-1.8-1.7-2.4-2.8-3.1
	c-1-0.6-2-1.5-3.8-1.6c-2-0.1-3.3,2.5-4.7,3.7c-4.6,4.1-8.6,7.3-13.3,11.1c-4.4,3.5-8.6,7.5-13.9,10.4c-1.2,0.7-4.5,2.9-6,1.7
	c-1.4-1.1,0.8-4.8,1.9-6.4c1.3-1.8,2.8-3.5,4.2-4.9c8.8-8.3,19.8-14.1,32.5-17.6c2.9-0.8,5-1.1,5.9-3.6c1.3-3.7-4.1-6.6-6.6-7.6
	c-1.4-0.5-4.4-0.8-6.6-0.7c-2.3,0.1-4.5,0-6.4,0.3c-3.3,0.4-6.7,1.5-10.1,2.1c-24,4.9-46.5,11.5-66.7,19.6
	c-3.4-4.6-7.8-8.2-12.8-11.3c12.3-9.2,25.6-20.7,32.8-35.7c2.4-4.9,5.3-11.1,5.3-17.6c0-5.5-2.2-10.4-5-14.1
	c-2.5-3.4-6-7.4-10.8-8.6c-2.3-0.6-4.5-0.2-6.9-0.9h-1.3c-9.5,1-16.9,4.7-23.7,8.6c-3.5,1.9-7.2,3.5-10.4,5.7
	c-9.5,6.5-17.4,13.9-26.4,21.6c-4.1,3.5-8.1,7.6-12,12c-0.8,0.9-2.8,4.1-4.3,3.7c-1-0.2-1.9-4.7-2.5-5.9c-2.4-4.5-6.7-9-12-11.3
	c-1.7-0.7-4.1-1.7-6.5-1.3c-3.6,0.7-5.6,5.7-3.8,9.7c1.1,2.5,3.7,2.6,5,4.3c3,3.8,3.1,11.9,2.9,18.7c-0.1,2.2,0,4.8-0.4,6.7
	c-0.4,1.7-2,3.4-3.1,5c-9.5,14.3-18.9,29.2-26.1,46c-1.6,3.7-2.9,7.9-4.1,11.9c-1.3,4.1-2.5,8.4-3.1,12.9c-0.6,4.6-0.6,10-1,15.3
	v1.4c0.2,3.1,0.5,5.7,1.5,8.1c0.9,2.2,2.2,4.7,4.4,5.3c4.4,1.1,6.8-2.8,8.6-5.3c1.3-1.8,2.7-3.5,3.8-5c5.1-7.3,8.7-14.5,12.8-22.4
	c2-3.9,4.5-7.6,5.9-11.7c3-8.9,6.2-17.4,8.6-26.3c1.2-4.6,2.4-9.2,3.7-13.8c1.2-4.6,2-9.4,3.2-14.3c0.6-2.4,2.4-4.1,4.1-6.3
	c3.8-4.8,8.8-10.5,12.6-14.6c6-6.3,11.4-12.8,17.9-18.4c6.4-5.5,12.8-10.7,20.4-15.9c3.3-2.3,7-4.9,11.3-6.9
	c3.6-1.6,9.8-5.1,14.2-3.6c2.7,0.9,5.2,4.4,5.4,8.1c0.4,6.7-2.8,12.6-5.7,17c-1.5,2.3-3.2,4.4-5,6.4c-1.8,2-3.4,4.2-5.4,6
	c-4.3,3.8-8.1,7.2-12,10.9c-1.8,1.7-4,3.8-6,5.4c-2,1.6-4.8,3.9-7,4.6c-1,0.3-2.4,0.2-3.5,0.4c-0.9,0.2-1.7,0.6-2.6,0.9
	c-1.9,0.5-3.8,0.8-5.7,1.3c-3.3,0.9-6.9,2.3-10.3,3.9c-2.9,1.3-6.2,3.2-8.8,5.1c-2.2,1.7-6,4.3-5.7,8.3c0.3,4.2,6,5.6,10.6,5.7
	c5.7,0.2,9.3-1.2,13.2-2.9c2.3-1,4.6-2,6.7-3c4.5-2.1,8.6-5.1,12.8-6.9c0.3,0.6,0.7,0.7,1.2,1c3.8,2.3,7,5.4,9.4,8.9
	c-20.9,9.7-40.8,21.4-57.4,36.4c-12.2,11-22.9,23.8-29.5,40.7c-2.1,5.3-4,13.2-2.2,19.8c0.5,2,1.4,3,2.2,5c2.2,2.3,4.2,4.1,7.3,5.3
	c6.7,2.5,16.4,1.4,23-0.7c7.1-2.2,13.2-5,18.8-7.8c11.8-6.1,22-13.8,30.9-22.1c9-8.5,17.8-18.1,24.2-28.7c3.1-5.1,6.3-11.5,7.9-18.4
	c1.7-7.3,0.6-16.2-1.8-22.7c9.9-3.9,21.9-8.4,31.8-11c0.5,1.4-0.1,2.6-0.6,3.6c-1.5,3.2-3.1,5.6-4.5,9c-1.5,3.5-3.8,9.9-1.6,14.6
	c0.9,1.9,2.7,3.7,4.4,4.6c0.9,0.5,2,0.5,3.1,0.9c1,0.3,2,0.8,2.9,1c6,1.2,11.3-2.4,15.1-4.9c1.9-1.2,3.9-2.6,6.2-4.1
	c0.8-0.6,5.9-3.8,6.9-3.1c0.8,0.5,0,3.8,0.3,5c0.5,2.5,2.4,4.3,4.5,5.1c4.6,1.9,11.5-0.8,15-2.4c7.9-3.7,16-8.2,22.6-12.9
	c1.4-1,2.6-2.5,4.4-2.4c0.4,2.2-0.9,5.8-0.6,9.3c0.1,1.1,0.8,2.3,0.6,3.3c-0.3,1.2-4.5,3.1-6.3,4.1c-2.5,1.4-4.8,2.6-6.6,3.9
	c-4.3,3-8.6,5.7-12.8,8.3c-4.3,2.6-8.3,5.6-12.2,8.7c-4,3.2-7.4,6.8-11,10c-7.4,6.5-13.9,13.9-19.3,22.4c-1.3,2.1-2.2,4.5-3.5,6.9
	c-3.4,6.2-6.5,16.9-2.3,25.1c1.3,2.6,3.5,5.1,5.6,7.3c1,1,2.3,1.8,3.7,2.7c3.3,2.3,6,3.3,10.4,4.4c6.6,1.7,13.9,2.8,22.1,3h1.3
	c7.8-1.1,14.2-2.7,20.1-5.6c5.9-2.9,11.6-5,16.7-8.9c2.5-1.9,5.2-3.4,7.6-5.1c9.8-7.2,17.2-16.6,23.3-27.6c1.5-2.7,3-5.6,4.2-8.4
	c6.4-14.5,12.5-30.5,11-51.6c-0.1-1.7-0.4-3.9-0.3-6c0.1-1.8,0.2-4.4,0.7-5.6c0.7-1.5,4.7-2.5,6.7-3.3c5.4-2,9.7-3.4,15-5.4
	c1.9-0.7,6.1-2.8,7.5-2.4c0.8,0.3,1.2,1.6,1.6,2.7c1.4,3.5,3.4,5.5,4.8,8.4c-1.8,2.2-4.8,2.6-7.3,3.7c-5,2.2-10,4.9-14.1,8.1
	c-3.2,2.5-8.4,7.2-4.5,11.7c1.1,1.3,4.8,3.5,6.2,3.6c8.4,0.7,14.8-2.3,21.4-5.9c6-3.2,12.3-7.2,14.4-13.1c0.3-1,0.2-3.3,0.6-4.3
	c0.5-1.4,3.3-2.2,5.1-3c4.3-1.8,7.2-3,11.1-5.3c1-0.6,4.4-3.3,5.4-2.3c0.6,0.6-0.4,3.4-0.9,4.9c-1.4,4.4-4.4,10.5-2.2,15.4
	c1,2.3,3.8,4.1,6.9,4.1c6,0.2,10.3-2.8,14.1-4.9c1.4-0.8,2.7-1.5,4.1-2.3c1.3-0.7,2.5-2.2,4.2-2c0.8,1.2,0.4,2.6,0.6,3.7
	c0.6,3.6,2.2,6.8,4.7,8.6c3.8,2.7,9.4,2.1,14.7,0.7c6.9-1.8,12.8-5,17.7-8.8c1.2-0.9,4-4,5.4-3.6c0.8,0.2,0.9,2.2,1.5,3.4
	c0.4,1,1.2,2.1,1.8,3.3c1.9,4.1,4.8,6.8,10.6,5c4-1.3,7-4.5,11.4-5.1c1.4,0.6,1.8,2.7,2.9,3.9c1.5,1.6,3.9,3,6.5,3.6
	c10.7,2.5,21.6-0.8,30.9-3c8.9-2.1,18.6-5.5,29.5-6.3c11.5-0.8,22.8,0.8,34.9,0.1c8.6-0.5,14.8-3.2,20.5-6.6
	c2.1-1.2,4.3-2.2,5.1-3.9c0.5-1,1.1-3.6,0.6-4.9C625.3,314.9,620.2,315.5,616.9,316.6 M494.3,283.5c3.4-8.1,8.1-15.7,13.5-22.1
	c2.2-2.7,4.6-5.4,7-7.3c0.1-0.1,0.6-0.6,0.9-0.1c0.9,0.8-0.2,1.8-0.4,2.4c-4.9,11-11.1,20.3-18.6,28.9c-1.1,1.2-2.1,3-3.8,3.4
	C492.4,286.8,493.6,285.1,494.3,283.5 M52.7,336.9c-0.9,4.3-2.7,9.2-4.4,13.3c-1.5,3.6-3.3,6.9-4.8,10.4c-0.5,1.1-0.7,2.6-2.1,3
	c-1-1.1,0.1-2.6,0.4-3.7c0.4-1.2,0.7-2.6,1-3.9c1.3-4.9,3.8-9.4,5.7-14.1c1-2.5,2.4-5.1,3.8-6.9h0.2
	C53.6,335.4,52.8,336.5,52.7,336.9 M150.8,337.1c-2.9,10.2-8.6,17.7-14.7,25c-11.8,14.3-26.8,25.7-44.6,35c-2.1,1.1-4.4,2.2-6.9,3.1
	c-5.8,2.3-17.8,4.5-18.5-3.7c-0.2-2.4,1.2-5.5,2.2-7.9c2.9-7,7.4-12.8,11.7-18.1c17.9-22.3,40.9-39.3,70-50.4c0.3,0,0.4-0.2,0.4,0
	C152.4,325.6,152.3,331.8,150.8,337.1L150.8,337.1z M312.6,345.2c-0.8,5-2.1,9-3.2,13.4c-0.4,1.4-1.1,2.6-1.5,4
	c-0.4,1.4-0.2,2.6-0.7,4.3c-0.5,1.8-1.3,3.7-2.1,5.4c-2.5,6-5.1,11.5-8.3,17c-3.2,5.5-7.3,10.5-12.3,14.8c-2.4,2.1-5.3,3.8-7.8,5.9
	c-4.3,3.5-8.8,5.7-14.4,7.7c-2.1,0.8-3.9,1.8-5.9,2.6c-0.6,0.2-1.4,0.2-2,0.4c-0.6,0.2-1,0.7-1.5,0.9c-1.7,0.4-3.8,0.3-5.9,0.7
	c-9.7,1.8-23.3,0.8-28.7-4.1c-1.5-1.4-3.4-4.1-3.8-6.6c-0.8-5.4,2.3-12.3,4.1-15.7c2.3-4.2,5.7-8.5,8.2-11.7
	c5.8-7.4,13-13.7,20.2-19.6c3.7-3,7.1-6.4,11-9c8-5.4,16-10.3,24.8-15.1c2.1-1.2,4.5-2.2,6.6-3.4c2.1-1.2,4.2-2.7,6.3-3.6
	c2.5-1.1,5.1-1.9,7.5-3c2.2-1.1,4.2-3,6.6-3.7c0.1,0,0.1-0.1,0.3-0.1c1.8-0.3,1.7,0.8,2.2,3.6C313,334.5,313.3,341.1,312.6,345.2
	 M469.1,310.5c-5.8,4.9-11.3,11-18.5,14.1c-1,0.4-2.2,1-2.9,0.1c-0.4-1.5,0.7-2.8,1.5-4c0.7-1.2,1.3-2.5,2.1-3.6
	c3.1-4.1,8.6-8.2,13.5-11c1.6-0.9,4-2.3,5.7-2.4c1.6-0.1,2.6,0.5,2.8,1.4C473.8,307.6,470.4,309.4,469.1,310.5 M511.1,321.2
	c-0.9-0.8,0.1-1.9,0.6-2.7c2.4-4.2,5.9-7.9,10.3-10.4c1.4-0.8,4.4-2.5,5.7-2.6c3.5-0.1,0.5,2.6-0.3,3.6c-3.5,3.9-8,7-12.5,10.3
	C513.8,320.2,512.6,321.3,511.1,321.2L511.1,321.2z M432.4,286.5c2.4,0.5,6.4-1.2,8.1-2.3c2.2-1.5,2.1-3.8,3.5-6.3
	c1.2-2.1,4.8-3.2,4.4-6.9c-0.1-1-1-2.6-2.2-3c-0.7-0.2-4.7-0.4-5.3-0.3c-1.5,0.3-3.2,1.4-4.8,2.1c-1.5,0.7-3,1.6-4.2,2.6
	c-2,1.6-5.9,4.5-6.2,7.4C425.5,283.4,429.4,285.9,432.4,286.5L432.4,286.5z M359.9,407.1c-8.1,0-14.1-6.2-14.1-14.1v-0.1
	c0-7.8,5.9-14.2,14.3-14.2c5.2,0,8.3,1.7,10.8,4.2l-3.8,4.4c-2.1-1.9-4.3-3.1-7-3.1c-4.6,0-8,3.8-8,8.6v0.1c0,4.7,3.3,8.6,8,8.6
	c3.1,0,5.1-1.3,7.2-3.2l3.8,3.9C368.4,405.2,365.2,407.1,359.9,407.1 M400.8,406.6v-11h-11.1v11h-6v-27.5h6V390h11.1v-10.9h6v27.5
	H400.8z M433.1,407c-7.4,0-11.9-4.1-11.9-12.2v-15.7h6v15.5c0,4.5,2.2,6.8,5.9,6.8s5.9-2.2,5.9-6.6v-15.7h6v15.5
	C445.1,403,440.5,407,433.1,407 M476.3,388.5c0-2.6-1.8-3.9-4.7-3.9h-6v7.9h6.1C474.6,392.5,476.3,390.9,476.3,388.5L476.3,388.5z
	 M476.2,406.6l-5.9-8.8h-4.7v8.8h-6v-27.5h12.6c6.5,0,10.4,3.4,10.4,9.1v0.1c0,4.4-2.4,7.2-5.9,8.5l6.7,9.8H476.2z M508.3,407.1
	c-8.1,0-14.1-6.2-14.1-14.1v-0.1c0-7.8,5.9-14.2,14.3-14.2c5.2,0,8.3,1.7,10.8,4.2l-3.8,4.4c-2.1-1.9-4.3-3.1-7-3.1
	c-4.6,0-8,3.8-8,8.6v0.1c0,4.7,3.3,8.6,8,8.6c3.1,0,5.1-1.3,7.2-3.2l3.8,3.9C516.8,405.2,513.6,407.1,508.3,407.1 M549.2,406.6v-11
	H538v11h-6v-27.5h6V390h11.1v-10.9h6v27.5H549.2z"/>
</svg>
