<?xml version="1.0" encoding="UTF-8"?><svg id="Layer_1" xmlns="http://www.w3.org/2000/svg" viewBox="0 0 913 160"><defs><style>.cls-2{fill:#65bd63;}.cls-3{fill:#25667a;}</style></defs><path class="cls-3" d="M49.93,130.52v-1.48c0-19.41,0-38.83-.02-58.24,0-1.03,.28-1.27,1.28-1.26,6.1,.05,12.19,.04,18.29,0,.79,0,1.14,.09,1.14,1.04-.03,28.79-.03,57.57,0,86.36,0,.78-.19,.99-.97,.95-6.78-.29-13.33-1.72-19.56-4.36-24.58-10.4-40.57-28.42-47.68-54.15C.83,93.71,.18,87.84,.03,81.92c-.39-15.42,3.12-29.87,11.1-43.07C23.13,19.01,40.56,6.47,63.32,1.81c20.73-4.25,40.45-1.06,58.52,10.09,18.85,11.62,30.56,28.56,35.38,50.09,3.99,17.81,2.57,35.26-5.52,51.75-10.41,21.25-26.93,35.57-49.84,42.23-3.84,1.12-7.79,1.61-11.78,1.9-1,.07-1.39-.09-1.39-1.24,.04-28.68,.03-57.35,0-86.03,0-.98,.25-1.22,1.22-1.22,6.02,.05,12.05,.04,18.07,0,.94,0,1.26,.18,1.24,1.19-.07,3.95,0,7.9-.05,11.85,0,.84,.24,1.05,1.06,1.04,5.65-.04,11.31,0,16.96-.04,.81,0,1.06,.17,1.05,1.02-.05,4.24-.04,8.49,0,12.73,0,.77-.18,.99-.97,.98-5.65-.03-11.31,0-16.96-.04-.83,0-1.14,.15-1.14,1.08,.04,9.89,.04,19.78,0,29.67,0,.94,.31,1.03,1.09,.81,5.16-1.4,9.33-4.38,12.91-8.2,8-8.53,12.51-18.82,15.01-30.09,1.24-5.6,1.76-11.27,1.45-17.02-.46-8.33-2.88-16.08-6.98-23.29-7.42-13.04-17.96-22.62-32.01-28.15-7.55-2.98-15.43-3.76-23.49-3.27-14.04,.84-26.59,5.54-37.27,14.76-10.9,9.4-17.56,21.31-19.63,35.52-2.49,17.06,1.54,32.64,11.78,46.54,4.2,5.7,9.49,10.19,15.95,13.21,.59,.28,1.19,.51,1.92,.82Z"/><path class="cls-3" d="M762.91,92.64c0-9.26,.02-18.53-.02-27.79,0-.97,.22-1.43,1.22-1.66,6.41-1.48,12.87-2.58,19.47-2.79,3.7-.12,7.38-.17,11.01,.65,3.34,.76,6.3,2.28,8.86,4.54,.47,.42,.76,.47,1.31,.12,5.66-3.55,11.8-5.5,18.53-5.38,3.75,.06,7.43,.56,10.89,2.14,5.78,2.64,8.87,7.35,10.21,13.35,.79,3.54,1.14,7.13,1.14,10.76,.01,11.37,0,22.73,.03,34.1,0,.92-.23,1.15-1.15,1.14-3.92-.06-7.83-.06-11.75,0-.97,.02-1.12-.29-1.12-1.17,.03-10.41,.04-20.81,0-31.22-.01-3.5-.26-7-1.28-10.39-1.28-4.26-4.03-6.37-8.47-6.65-4.08-.26-7.81,.78-11.37,2.66-.58,.31-.77,.62-.57,1.3,1.06,3.49,1.34,7.09,1.34,10.71,.02,11.18,0,22.36,.03,33.54,0,.96-.2,1.23-1.2,1.21-3.92-.07-7.83-.06-11.75,0-.91,.01-1.08-.27-1.08-1.11,.02-11,.02-21.99-.03-32.99-.01-3.03-.38-6.04-1.33-8.94-1.33-4.06-4.07-6.13-8.35-6.37-3.3-.19-6.55,.31-9.81,.72-.92,.12-.75,.73-.75,1.29,0,11.96,0,23.91,0,35.87,0,3.47-.02,6.94,.02,10.41,0,.82-.14,1.14-1.07,1.13-3.99-.06-7.98-.05-11.97,0-.88,.01-1.01-.29-1.01-1.07,.02-9.37,.02-18.75,.02-28.12Z"/><path class="cls-3" d="M681,108.33c.52,3.15,1.04,6.27,1.53,9.4,.33,2.1,.33,2.17-1.69,2.8-9.18,2.85-18.49,3.92-27.92,1.49-9.75-2.52-16.21-8.69-18.96-18.4-2.53-8.93-2.46-17.88,1.16-26.53,4.02-9.61,11.31-15.36,21.67-16.73,7.35-.97,14.37,.24,20.39,5,4.7,3.72,7.19,8.77,8.46,14.5,1.11,5,1.32,10.07,.96,15.17-.06,.87-.34,1.06-1.17,1.06-12.45-.03-24.9-.02-37.35-.02-1.37,0-1.35,0-1.15,1.31,.62,4.12,2.23,7.7,5.62,10.31,2.63,2.02,5.69,2.92,8.93,3.25,6.58,.67,12.95-.27,19.14-2.53,.09-.03,.2-.04,.37-.08Zm-21.13-22.6c3.95,0,7.91-.04,11.86,.03,.97,.01,1.13-.36,1.01-1.16-.14-.91-.22-1.83-.4-2.73-1.67-8.52-10.28-12.72-17.85-8.69-4.74,2.53-6.62,6.89-7.47,11.89-.15,.87,.44,.66,.87,.66,3.99,0,7.98,0,11.97,0Z"/><path class="cls-3" d="M429.32,100.69c0,6.24-.01,12.47,.02,18.71,0,.75-.15,1.1-.95,1.25-7.99,1.52-16.03,2.58-24.18,2.44-3.99-.07-7.95-.48-11.77-1.76-7.11-2.39-11.4-7.99-11.83-15.48-.2-3.49-.06-6.94,1.51-10.16,2.55-5.23,6.98-8.07,12.41-9.51,6.68-1.76,13.42-1.84,20.17-.33,.91,.2,1.14,0,1.12-.91-.03-1.37-.05-2.73-.28-4.08-.95-5.47-4.41-8.56-9.97-8.87-5.64-.31-11.2,.27-16.62,1.94-.7,.21-.97,.22-1.09-.66-.39-3.03-.82-6.06-1.39-9.06-.22-1.17,.14-1.51,1.18-1.79,4.94-1.32,9.95-2.15,15.05-2.3,3.99-.12,7.98,.03,11.87,1.08,8.01,2.17,12.72,7.35,14.13,15.52,.42,2.44,.64,4.89,.64,7.37,0,5.53,0,11.07,0,16.6Zm-13.54,2.84c0-2.21-.05-4.43,.02-6.64,.03-.81-.28-1.08-1-1.23-3.94-.85-7.9-1-11.88-.41-2.36,.35-4.56,1.11-6.39,2.77-3.09,2.81-2.95,10.99,2.58,12.79,.98,.32,1.95,.69,2.98,.82,4.35,.56,8.69,.33,13.02-.23,.72-.09,.67-.52,.67-1.01,0-2.29,0-4.57,0-6.86Z"/><path class="cls-3" d="M745.94,100.54c0,6.27-.02,12.55,.02,18.82,0,.83-.25,1.16-1.04,1.3-7.92,1.48-15.89,2.55-23.97,2.42-3.74-.06-7.44-.44-11.04-1.5-7.71-2.27-12.23-7.96-12.7-15.98-.33-5.65,.76-10.79,5.15-14.8,3.06-2.8,6.75-4.3,10.76-5.1,6.13-1.22,12.25-1.23,18.35,.17,.72,.17,.96,.01,.96-.77,0-1.85-.06-3.69-.5-5.49-1.11-4.58-4.73-7.38-9.9-7.63-5.65-.27-11.2,.31-16.61,2-.62,.19-.81,.11-.9-.55-.46-3.25-.96-6.49-1.49-9.72-.12-.72,.13-.96,.78-1.14,4.71-1.3,9.48-2.16,14.38-2.38,4.56-.2,9.08-.1,13.5,1.16,7.74,2.21,12.21,7.35,13.62,15.22,.45,2.51,.67,5.04,.66,7.59-.02,5.46,0,10.92,0,16.39Zm-13.54,3.04c0-2.25-.03-4.5,.02-6.75,.02-.73-.23-1.03-.93-1.17-1.92-.37-3.85-.71-5.81-.74-3.55-.05-7.09,0-10.38,1.62-1.91,.94-3.39,2.36-3.83,4.46-.98,4.73,.29,9.14,6.13,10.37,4.72,.99,9.46,.57,14.2,0,.66-.08,.61-.5,.61-.96,0-2.29,0-4.57,0-6.86Z"/><path class="cls-3" d="M446.23,92.69c0-9.3,.02-18.6-.03-27.89,0-1.03,.34-1.38,1.27-1.6,6.52-1.53,13.08-2.6,19.79-2.8,4.22-.12,8.42-.13,12.55,.81,8.94,2.04,14.55,8.19,16.05,17.44,.55,3.39,.8,6.8,.8,10.23-.01,10.59-.02,21.18,.02,31.77,0,.9-.2,1.18-1.14,1.17-3.88-.05-7.76-.05-11.64,0-.97,.01-1.3-.19-1.29-1.24,.04-10.29,.04-20.59,.02-30.88,0-3.06-.17-6.11-.93-9.1-1.34-5.3-4.5-7.89-9.99-8.18-3.56-.19-7.07,.27-10.59,.69-.97,.12-.83,.73-.83,1.35,0,15.24,0,30.48,0,45.71,0,.22-.03,.45,0,.66,.11,.77-.18,1-.96,.99-3.99-.04-7.98-.05-11.97,0-.9,.01-1.17-.19-1.17-1.13,.04-9.33,.02-18.67,.02-28Z"/><path class="cls-3" d="M216.71,92.57c0-9.34,.01-18.67-.02-28.01,0-.82,.24-1.13,1.04-1.32,6.54-1.58,13.15-2.63,19.9-2.85,4.26-.13,8.5-.16,12.66,.83,8.96,2.14,14.15,7.87,15.86,16.84,.61,3.2,.9,6.42,.9,9.67-.02,10.96-.02,21.92,.02,32.88,0,.97-.22,1.22-1.2,1.2-3.92-.06-7.83-.06-11.75,0-.91,.01-1.06-.29-1.06-1.11,.03-10.44,.04-20.89,0-31.33,0-3.06-.2-6.12-1.03-9.09-1.41-5.1-4.39-7.52-9.67-7.87-3.67-.24-7.29,.23-10.92,.69-.9,.12-.77,.68-.77,1.25,0,12.84,0,25.68,0,38.52,0,2.58-.06,5.17,.03,7.75,.04,1.03-.31,1.18-1.23,1.17-3.88-.05-7.76-.05-11.64,0-.91,.01-1.16-.2-1.15-1.13,.04-9.37,.02-18.75,.02-28.12Z"/><path class="cls-3" d="M298.69,123.31c-6.27,.13-12.34-.95-18.24-3.05-.81-.29-1.05-.58-.83-1.48,.74-3.19,1.41-6.4,2-9.63,.17-.95,.48-.92,1.22-.63,6.12,2.41,12.45,3.62,19.06,3.11,1.33-.1,2.64-.28,3.92-.67,4.07-1.24,5.27-5.9,2.3-8.97-1.71-1.77-3.94-2.7-6.13-3.67-3.43-1.53-7.05-2.62-10.43-4.28-3.7-1.82-7.11-4.03-9.02-7.85-3.76-7.54-2.78-19.88,9.88-24.39,4.1-1.46,8.35-1.81,12.66-1.68,5.04,.15,9.96,1.05,14.79,2.52,.76,.23,.98,.54,.79,1.32-.76,3.19-1.46,6.39-2.19,9.59-.09,.4-.1,.86-.74,.56-4.54-2.11-9.36-2.15-14.22-1.93-1.55,.07-3.09,.21-4.63,.4-2,.25-3.42,1.25-4.03,3.14-.65,2.06-.33,4.03,1.2,5.66,1.23,1.32,2.83,2.1,4.45,2.83,3.56,1.61,7.32,2.71,10.86,4.38,2.96,1.39,5.8,2.92,8.12,5.27,3.64,3.68,4.43,8.29,4.17,13.18-.43,8.36-5.7,12.91-13.47,15-3.77,1.01-7.63,1.27-11.51,1.28Z"/><path class="cls-3" d="M877.18,123.31c-6.27,.14-12.34-.95-18.23-3.05-.79-.28-1.07-.55-.85-1.48,.75-3.19,1.41-6.4,2.01-9.62,.17-.92,.45-.94,1.21-.64,6.16,2.43,12.52,3.62,19.16,3.11,1.33-.1,2.64-.29,3.91-.69,3.93-1.24,5.12-5.83,2.29-8.87-1.58-1.69-3.65-2.59-5.7-3.53-3.55-1.62-7.32-2.74-10.83-4.46-3.74-1.82-7.19-4.03-9.12-7.89-3.79-7.57-2.75-19.9,9.87-24.39,4.14-1.47,8.43-1.81,12.77-1.68,4.97,.15,9.81,1.06,14.57,2.47,.95,.28,1.07,.68,.86,1.56-.74,3.08-1.44,6.17-2.09,9.27-.16,.75-.34,.86-1.07,.58-5.21-2.01-10.59-2.87-16.16-2.24-1.33,.15-2.6,.51-3.8,1.12-3.24,1.65-3.96,5.88-1.42,8.5,1.52,1.57,3.48,2.46,5.46,3.28,3.61,1.48,7.33,2.69,10.85,4.4,2.5,1.22,4.88,2.61,6.89,4.56,2.38,2.33,3.74,5.16,4.19,8.46,.51,3.82,.42,7.59-1.25,11.15-1.98,4.21-5.53,6.6-9.77,8.12-4.44,1.6-9.06,1.95-13.73,1.97Z"/><path class="cls-3" d="M512.94,73.87c0-8.97,.01-17.93-.02-26.9,0-.89,.12-1.32,1.17-1.47,3.91-.55,7.8-1.2,11.68-1.92,1.1-.21,1.16,.14,1.16,1.05-.04,5.28,0,10.55-.04,15.83,0,.9,.18,1.17,1.13,1.16,6.43-.05,12.86,0,19.28-.04,.87,0,1.12,.21,1.11,1.1-.05,3.21-.05,6.42,0,9.63,.01,.78-.21,.99-.99,.99-6.46-.03-12.93,0-19.39-.04-.94,0-1.14,.26-1.13,1.16,.05,8.19,.04,16.38,.07,24.57,0,1.81,.21,3.61,.65,5.37,1.08,4.41,3.63,6.48,8.37,6.78,3.97,.25,7.78-.55,11.47-1.94,.86-.33,1.09-.17,1.26,.73,.58,3.07,1.26,6.13,1.91,9.19,.1,.48,.19,.87-.45,1.13-7.76,3.1-15.72,3.99-23.85,1.84-7.25-1.92-11.03-7.07-12.47-14.18-.63-3.12-.9-6.27-.9-9.45,0-8.19,0-16.38,0-24.57Z"/><path class="cls-3" d="M587.88,73.84c0-9,.01-18.01-.02-27.01,0-.88,.23-1.17,1.11-1.3,4.08-.62,8.16-1.3,12.23-2.02,.89-.16,.69,.36,.69,.8,0,5.35,.04,10.7-.02,16.05-.01,1.04,.3,1.26,1.29,1.25,6.28-.04,12.56,.02,18.84-.06,1.18-.01,1.38,.35,1.36,1.42-.07,2.99-.07,5.98,0,8.97,.02,1.03-.19,1.37-1.3,1.36-6.35-.06-12.71-.01-19.06-.05-.85,0-1.12,.19-1.11,1.08,.04,8.12,0,16.24,.03,24.35,0,1.88,.21,3.75,.64,5.59,1.09,4.6,3.95,6.77,9.09,6.89,3.7,.08,7.26-.66,10.71-1.96,.87-.33,1.15-.23,1.33,.75,.56,3.08,1.26,6.13,1.9,9.19,.09,.42,.26,.81-.37,1.06-7.76,3.09-15.72,4.01-23.85,1.88-7.35-1.92-11.15-7.14-12.58-14.34-.65-3.3-.89-6.64-.89-10.01,0-7.97,0-15.94,0-23.91Z"/><path class="cls-3" d="M349.85,43.43c.21,.42,.12,.83,.12,1.23,0,5.31,.03,10.63-.02,15.94,0,.85,.24,1.02,1.05,1.02,6.43-.03,12.86,0,19.28-.04,.84,0,1.15,.18,1.13,1.08-.06,3.17-.05,6.35,0,9.52,.01,.86-.21,1.12-1.1,1.11-6.43-.04-12.86,0-19.28-.04-.9,0-1.07,.27-1.07,1.11,.03,8.12,.01,16.23,.02,24.35,0,1.66,.17,3.32,.51,4.94,1.08,5.17,3.85,7.4,9.24,7.52,3.74,.08,7.33-.68,10.81-2,.81-.31,1.04-.14,1.2,.7,.57,3,1.2,5.99,1.88,8.97,.19,.83,.06,1.22-.79,1.55-7.01,2.75-14.22,3.59-21.61,2.13-8.02-1.58-12.71-6.46-14.31-14.48-.72-3.6-.93-7.23-.93-10.89,0-16.75,0-33.5-.02-50.25,0-.9,.19-1.25,1.15-1.39,4.26-.64,8.51-1.38,12.76-2.09Z"/><path class="cls-3" d="M185,91.57c0-9.63,.01-19.26-.02-28.9,0-.86,.2-1.11,1.09-1.1,3.99,.05,7.98,.04,11.97,0,.77,0,.99,.21,.99,.98-.02,19.45-.02,38.9,0,58.34,0,.74-.22,.92-.93,.91-3.99-.03-7.98-.05-11.97,0-.91,.01-1.16-.2-1.15-1.14,.04-9.71,.02-19.41,.02-29.12Z"/><path class="cls-2" d="M87,52.24c0-6.87,5.26-12.13,12.03-12.05,7,.08,11.9,5.08,11.88,12.12-.02,6.99-4.93,11.84-11.98,11.83-7.01-.01-11.94-4.93-11.93-11.9Z"/><path class="cls-2" d="M60.3,64.04c-7.21,0-11.88-4.64-11.88-11.8,0-7.1,4.88-12.01,11.93-12,6.93,0,11.98,5.09,11.98,12.05,0,6.95-4.92,11.75-12.04,11.75Z"/><path class="cls-3" d="M191.84,52.53c-5.05,0-8.6-3.54-8.58-8.53,.02-5.13,3.57-8.62,8.76-8.6,5.01,.02,8.5,3.56,8.51,8.61,0,5.07-3.52,8.53-8.68,8.52Z"/><path class="cls-3" d="M913.37,57.66c0,3.28-2.66,5.86-5.96,5.81-3.32-.05-5.93-2.65-5.93-5.9,0-3.25,2.63-5.76,6.01-5.75,3.4,0,5.88,2.47,5.88,5.83Zm-5.91-4.59c-2.49,0-4.45,1.99-4.46,4.52,0,2.49,1.99,4.54,4.44,4.57,2.44,.04,4.42-2.01,4.4-4.56-.02-2.62-1.87-4.53-4.39-4.53Z"/><path class="cls-3" d="M908.99,57.73c.96,.71,.92,1.82,1.24,2.82-1.04,.32-1.71,.1-1.83-1.08-.03-.25-.11-.52-.26-.72-.31-.43-.82-.53-1.29-.43-.52,.11-.21,.61-.31,.93-.16,.51,.51,1.44-.75,1.41-.49-.01-.64-.17-.63-.64,.02-1.55,.02-3.09,0-4.64,0-.48,.2-.66,.65-.67,.77,0,1.55-.04,2.32-.02,.82,.02,1.54,.26,1.82,1.15,.29,.9-.23,1.44-.96,1.89Zm-1.71-.41c.52-.11,1.2-.09,1.19-.84,0-.73-.65-.79-1.2-.84-.75-.06-.65,.5-.67,.97-.02,.48,.08,.81,.68,.71Z"/><path class="cls-1" d="M907.29,57.32c-.59,.1-.7-.23-.68-.71,.02-.48-.09-1.03,.67-.97,.55,.04,1.2,.1,1.2,.84,0,.75-.68,.73-1.19,.84Z"/></svg>